<svg width="339" height="191" viewBox="0 0 339 191" fill="none" xmlns="http://www.w3.org/2000/svg">
<mask id="mask0_1_63" style="mask-type:alpha" maskUnits="userSpaceOnUse" x="20" y="9" width="299" height="172">
<rect x="20" y="9" width="299" height="172" rx="8" fill="#1066FF"/>
</mask>
<g mask="url(#mask0_1_63)">
<path opacity="0.1" d="M123.5 147.963C65.9833 144.097 24 169.114 14 180.476L21.5 190.439H42H327.5L338 43.0854C341.333 26.6545 315.16 -7.16263 313.5 9.00001C310 43.0853 288 94.4756 261.5 113.354C238.963 129.409 201.5 153.207 123.5 147.963Z" fill="url(#paint0_linear_1_63)"/>
<ellipse opacity="0.05" cx="30" cy="32.0732" rx="30" ry="31.4634" fill="white"/>
</g>
<path d="M253.754 145.524C253.558 145.13 253.247 144.805 252.861 144.561C252.459 144.315 251.984 144.142 251.441 144.04C250.889 143.94 250.251 143.895 249.512 143.888L246.099 143.89C245.745 143.895 245.397 144.171 245.314 144.514L243.018 154.514C242.935 154.852 243.157 155.136 243.512 155.136H245.146C245.501 155.136 245.852 154.861 245.93 154.514L246.491 152.086C246.566 151.748 246.916 151.466 247.274 151.466H247.742C249.74 151.464 251.288 151.055 252.4 150.238C253.517 149.419 254.068 148.337 254.068 146.997C254.067 146.41 253.971 145.917 253.754 145.524ZM250.23 148.791C249.736 149.153 249.049 149.334 248.163 149.334H247.763C247.408 149.334 247.19 149.053 247.267 148.711L247.759 146.587C247.828 146.247 248.186 145.965 248.537 145.967L249.073 145.963C249.698 145.963 250.175 146.072 250.494 146.281C250.809 146.488 250.968 146.818 250.965 147.255C250.975 147.919 250.721 148.43 250.23 148.791Z" fill="white"/>
<path d="M300.341 144.671L300.239 144.702L300.102 144.721L299.934 144.695L299.848 144.611L299.809 144.48L299.807 144.284V143.557H300.353V143.332H299.807V142.878H299.536V143.332H299.353V143.557H299.536V144.403L299.662 144.822L300.034 144.955L300.19 144.942L300.355 144.91V144.671H300.341Z" fill="white"/>
<path d="M302.875 143.447L302.485 143.286L302.197 143.345L301.904 143.542L301.734 143.353L301.457 143.288L301.192 143.346L300.941 143.508V143.332H300.675V144.921H300.94V143.734L301.162 143.596L301.384 143.541L301.565 143.573L301.654 143.665L301.693 143.817L301.706 144.014V144.922H301.972V143.905L301.967 143.821L301.962 143.744L302.188 143.6L302.412 143.544L302.587 143.576L302.682 143.667L302.716 143.821L302.733 144.015V144.923H303V143.891L302.875 143.447Z" fill="white"/>
<path d="M261.635 146.954C261.018 146.606 260.045 146.432 258.714 146.432C258.056 146.432 257.4 146.484 256.737 146.586C256.248 146.661 256.2 146.675 255.899 146.741C255.278 146.876 255.18 147.496 255.18 147.496L254.98 148.319C254.867 148.844 255.169 148.824 255.295 148.78C255.567 148.699 255.718 148.615 256.273 148.492C256.802 148.371 257.361 148.281 257.803 148.287C258.457 148.287 258.957 148.356 259.29 148.496C259.618 148.639 259.783 148.884 259.783 149.239L259.754 149.47L259.518 149.615C258.591 149.673 257.921 149.759 257.108 149.877C256.313 149.988 255.616 150.182 255.036 150.447C254.413 150.721 253.952 151.089 253.629 151.556C253.317 152.027 253.161 152.597 253.161 153.266C253.161 153.895 253.387 154.415 253.827 154.818C254.268 155.213 254.851 155.406 255.549 155.406C255.991 155.403 256.332 155.369 256.575 155.311L257.366 155.038L258.037 154.667L258.653 154.26L258.661 154.271L258.6 154.533L258.596 154.544V154.546C258.529 154.865 258.722 155.127 259.033 155.158L259.039 155.165H259.067H260.321H260.556L260.578 155.156C260.904 155.118 261.21 154.856 261.281 154.544L262.473 149.387L262.535 148.966L262.563 148.572C262.568 147.842 262.253 147.3 261.635 146.954ZM259 152.753L258.745 153.088L258.102 153.42C257.8 153.543 257.513 153.605 257.247 153.605C256.845 153.605 256.53 153.547 256.317 153.428L256.001 152.815C256.001 152.482 256.077 152.219 256.24 152.017L256.933 151.546C257.23 151.446 257.591 151.361 258.01 151.303C258.384 151.256 259.122 151.172 259.219 151.17L259.332 151.368C259.309 151.481 259.1 152.357 259 152.753Z" fill="white"/>
<path d="M291.318 146.961C290.697 146.613 289.725 146.438 288.398 146.438C287.74 146.438 287.083 146.489 286.422 146.595C285.932 146.667 285.883 146.682 285.58 146.747C284.96 146.881 284.864 147.504 284.864 147.504L284.664 148.325C284.552 148.85 284.847 148.826 284.985 148.786C285.258 148.705 285.404 148.625 285.954 148.496C286.482 148.377 287.044 148.289 287.488 148.292C288.14 148.292 288.639 148.362 288.972 148.502C289.302 148.645 289.464 148.893 289.464 149.244L289.439 149.473L289.206 149.622C288.269 149.678 287.598 149.764 286.793 149.882C286.001 149.992 285.301 150.185 284.72 150.452C284.1 150.727 283.632 151.095 283.313 151.564C282.998 152.034 282.844 152.603 282.844 153.266C282.844 153.9 283.068 154.42 283.513 154.82C283.957 155.214 284.534 155.412 285.232 155.412C285.671 155.407 286.013 155.378 286.257 155.315L287.046 155.046L287.722 154.675L288.334 154.263L288.344 154.276L288.288 154.54L288.282 154.545L288.285 154.55C288.211 154.869 288.405 155.133 288.719 155.162L288.722 155.168H288.75C288.956 155.168 289.668 155.168 290.007 155.168H290.238L290.263 155.159C290.586 155.12 290.89 154.858 290.958 154.543L292.153 149.393L292.216 148.97L292.251 148.575C292.252 147.846 291.94 147.307 291.318 146.961ZM288.688 152.76L288.423 153.099L287.786 153.429C287.484 153.55 287.196 153.613 286.935 153.613C286.52 153.613 286.213 153.554 286.005 153.435L285.686 152.824C285.686 152.491 285.764 152.23 285.92 152.024C286.078 151.83 286.32 151.671 286.62 151.554C286.912 151.454 287.274 151.373 287.696 151.312C288.067 151.266 288.803 151.179 288.898 151.178L289.013 151.377C288.997 151.49 288.786 152.362 288.688 152.76Z" fill="white"/>
<path d="M283.432 145.561C283.227 145.165 282.92 144.845 282.532 144.595C282.135 144.347 281.663 144.173 281.112 144.073C280.571 143.977 279.924 143.924 279.19 143.923L275.773 143.926C275.417 143.932 275.075 144.208 274.993 144.547L272.695 154.552C272.611 154.892 272.84 155.172 273.187 155.172L274.824 155.17C275.172 155.172 275.528 154.894 275.61 154.551L276.163 152.122C276.244 151.784 276.595 151.499 276.949 151.502H277.416C279.417 151.502 280.968 151.09 282.085 150.275C283.188 149.45 283.746 148.37 283.746 147.029C283.74 146.444 283.639 145.95 283.432 145.561ZM279.908 148.833C279.415 149.188 278.727 149.369 277.846 149.369H277.439C277.088 149.372 276.861 149.087 276.939 148.746L277.434 146.626C277.507 146.287 277.862 146.003 278.215 146.006L278.745 146.003C279.373 146.006 279.845 146.11 280.166 146.319C280.486 146.529 280.637 146.857 280.641 147.293C280.644 147.957 280.398 148.469 279.908 148.833Z" fill="white"/>
<path d="M297.445 144.627C297.52 144.285 297.306 144.008 296.955 144.013H295.491C295.191 144.013 294.92 144.235 294.788 144.509L294.707 144.635L294.634 144.959L292.588 154.26L292.521 154.545L292.523 154.552C292.455 154.858 292.644 155.089 292.934 155.133L292.959 155.168H294.479C294.776 155.168 295.056 154.942 295.184 154.663L295.262 154.544L297.45 144.628L297.445 144.627Z" fill="white"/>
<path d="M272.74 146.557C272.353 146.562 270.781 146.557 270.781 146.557C270.428 146.557 269.976 146.842 269.752 147.181C269.752 147.181 267.412 151.197 267.185 151.6L266.914 151.597L266.185 147.208C266.104 146.863 265.744 146.568 265.295 146.568L263.831 146.57C263.478 146.57 263.262 146.851 263.342 147.194C263.342 147.194 264.453 153.52 264.676 155.009C264.779 155.831 264.663 155.977 264.663 155.977L263.215 158.498C263.001 158.841 263.117 159.121 263.468 159.121L265.16 159.118C265.513 159.118 265.976 158.841 266.185 158.497L272.696 147.485C272.696 147.486 273.322 146.544 272.74 146.557Z" fill="white"/>
<defs>
<linearGradient id="paint0_linear_1_63" x1="313.5" y1="20.0122" x2="13.0789" y2="170.774" gradientUnits="userSpaceOnUse">
<stop stop-color="white"/>
<stop offset="1" stop-color="white" stop-opacity="0.5"/>
</linearGradient>
</defs>
</svg>
