<svg width="32" height="32" viewBox="0 0 32 32" fill="none" xmlns="http://www.w3.org/2000/svg">
<path d="M23.0312 15H17V8.96875C17 8.41875 16.55 7.96875 16 7.96875C15.45 7.96875 15 8.41875 15 8.96875V15H8.96875C8.41875 15 7.96875 15.45 7.96875 16C7.96875 16.275 8.08125 16.525 8.2625 16.7062C8.44375 16.8875 8.69375 17 8.96875 17H15V23.0312C15 23.3062 15.1125 23.5562 15.2937 23.7375C15.475 23.9187 15.725 24.0312 16 24.0312C16.55 24.0312 17 23.5813 17 23.0312V17H23.0312C23.5813 17 24.0312 16.55 24.0312 16C24.0312 15.45 23.5813 15 23.0312 15Z" fill="white"/>
</svg>
