<svg width="22" height="22" viewBox="0 0 22 22" fill="none" xmlns="http://www.w3.org/2000/svg">
<path d="M14.966 9.29844C14.7512 9.51758 14.3945 9.51758 14.1754 9.30274L11.5586 6.69454V16.6332C11.5586 16.9383 11.3094 17.1875 11 17.1875C10.6906 17.1875 10.4414 16.9383 10.4414 16.6332V6.69454L7.82461 9.30704C7.60547 9.52188 7.25312 9.51758 7.03398 9.30274C6.81914 9.0836 6.81914 8.73555 7.03828 8.51641L10.6047 4.97579C10.6562 4.92852 10.7121 4.88985 10.7809 4.85977C10.8496 4.82969 10.9227 4.8168 10.9957 4.8168C11.1418 4.8168 11.2793 4.87266 11.3867 4.97579L14.9531 8.51641C15.1766 8.72696 15.1809 9.0793 14.966 9.29844Z" fill="white"/>
</svg>
