<svg width="24" height="24" viewBox="0 0 24 24" fill="none" xmlns="http://www.w3.org/2000/svg">
<path d="M21.2766 17.7516C18.8484 17.3766 18.6656 17.2031 18.6656 17.2031C19.3969 13.7344 17.6156 10.1203 15.0891 8.03438C11.7234 5.25938 6.60938 7.275 2.625 3.05625C1.69688 2.07188 2.23594 14.0953 7.22344 18.6516C10.8703 21.9797 15.1641 20.9578 16.3406 20.4141C17.4094 19.9172 18.1547 18.825 18.1547 18.825C20.1 19.4344 21.0609 19.4906 21.0609 19.4906C21.7453 19.575 22.0922 17.8781 21.2766 17.7516ZM16.9734 18.0984C13.3313 17.0063 10.1625 14.3016 8.10938 12.1828C7.94063 12.0094 8.18438 11.7516 8.36719 11.9016C10.3875 13.5656 13.4719 15.6516 17.4281 16.9594C17.4375 17.3391 17.2172 17.8828 16.9734 18.0984Z" fill="#031A6E"/>
</svg>
