<svg width="30" height="31" viewBox="0 0 24 25" fill="none" xmlns="http://www.w3.org/2000/svg">
<g opacity="0.6">
<path d="M11.9953 22.375C13.4531 22.375 14.25 21.3438 14.25 19.8906H9.73593C9.73593 21.3438 10.5328 22.375 11.9953 22.375V22.375Z" fill="#222222"/>
<path d="M19.3125 17.5094C18.5906 16.5578 17.1703 16 17.1703 11.7391C17.1703 7.36561 15.2391 5.6078 13.4391 5.18593C13.2703 5.14374 13.1484 5.08749 13.1484 4.90936V4.77342C13.1484 4.1453 12.6328 3.61561 12.0047 3.6203C11.3766 3.61092 10.8609 4.1453 10.8609 4.77342V4.90936C10.8609 5.0828 10.7391 5.14374 10.5703 5.18593C8.76562 5.61249 6.83905 7.36561 6.83905 11.7391C6.83905 16 5.41874 16.5531 4.69687 17.5094C4.2328 18.1234 4.67343 19 5.44218 19H18.5719C19.3359 19 19.7766 18.1187 19.3125 17.5094V17.5094Z" fill="#222222"/>
</g>
<circle cx="17" cy="5" r="4.5" fill="#E6492D" stroke="white"/>
</svg>
