<svg width="30" height="30" viewBox="0 0 24 24" fill="none" xmlns="http://www.w3.org/2000/svg">
<g opacity="0.6">
<path d="M11.9953 21.375C13.4531 21.375 14.25 20.3438 14.25 18.8906H9.73593C9.73593 20.3438 10.5328 21.375 11.9953 21.375Z" fill="#222222"/>
<path d="M19.3125 16.5094C18.5906 15.5578 17.1703 15 17.1703 10.739C17.1703 6.36561 15.2391 4.6078 13.4391 4.18593C13.2703 4.14374 13.1484 4.08749 13.1484 3.90936V3.77342C13.1484 3.1453 12.6328 2.61561 12.0047 2.6203C11.3766 2.61092 10.8609 3.1453 10.8609 3.77342V3.90936C10.8609 4.0828 10.7391 4.14374 10.5703 4.18593C8.76562 4.61249 6.83905 6.36561 6.83905 10.739C6.83905 15 5.41874 15.5531 4.69687 16.5094C4.2328 17.1234 4.67343 18 5.44218 18H18.5719C19.3359 18 19.7766 17.1187 19.3125 16.5094Z" fill="#222222"/>
</g>
</svg>
