<svg width="24" height="24" viewBox="0 0 24 24" fill="none" xmlns="http://www.w3.org/2000/svg">
<path d="M19.0453 2.25941C18.825 2.3016 9.57656 4.09691 9.37969 4.13441C9.18281 4.17191 9 4.30316 9 4.50941V15.7641C9 15.8391 8.99531 16.1016 8.8875 16.3125C8.74219 16.5891 8.48906 16.7907 8.13281 16.9078C7.97813 16.9594 7.76719 17.0063 7.51875 17.0625C6.38906 17.3157 4.5 17.7469 4.5 19.4907C4.5 20.9485 5.55 21.6047 6.45469 21.7172C6.55312 21.7313 6.66563 21.75 6.7875 21.75C7.10156 21.75 8.475 21.5953 9.1875 21.1313C9.70312 20.7938 10.3172 20.1282 10.3172 18.8907V8.92972C10.3172 8.7516 10.4437 8.59691 10.6172 8.5641L17.7422 7.12504C17.9766 7.07816 18.1922 7.25629 18.1922 7.49066V13.6266C18.1922 13.8188 18.1828 14.0438 18.075 14.2547C17.9297 14.5313 17.6766 14.7328 17.3156 14.85C17.1609 14.9016 16.9031 14.9485 16.6547 15.0047C15.525 15.2578 13.6359 15.6844 13.6359 17.4282C13.6359 19.0078 14.8266 19.6407 15.5953 19.6922C15.9 19.711 16.1203 19.7063 16.5047 19.65C16.8891 19.5938 17.6063 19.3922 18.2156 19.0407C19.0547 18.5578 19.5047 17.7844 19.5047 16.7813V2.62035C19.5 2.4141 19.3266 2.20316 19.0453 2.25941Z" fill="#031A6E"/>
</svg>
