<svg width="24" height="24" viewBox="0 0 24 24" fill="none" xmlns="http://www.w3.org/2000/svg">
<path d="M18.9375 7.5H5.0625C3.51094 7.5 2.25 8.76094 2.25 10.3125V18.1875C2.25 19.7391 3.51094 21 5.0625 21H18.9375C20.4891 21 21.75 19.7391 21.75 18.1875V10.3125C21.75 8.76094 20.4891 7.5 18.9375 7.5Z" fill="#031A6E"/>
<path d="M16.0734 3.04687L5.0625 5.19844C4.21875 5.38594 3 6.23437 3 7.26562C3 7.26562 3.70312 6.375 5.29688 6.375H18.75V5.41406C18.75 4.82344 18.5156 4.06875 18.0984 3.65156C17.5688 3.12187 16.8094 2.89219 16.0734 3.04687Z" fill="#031A6E"/>
</svg>
