<svg width="22" height="22" viewBox="0 0 22 22" fill="none" xmlns="http://www.w3.org/2000/svg">
<g clip-path="url(#clip0_1_158)">
<path d="M21.8539 6.39381C21.8539 4.46022 20.4317 2.90475 18.6742 2.90475C16.2938 2.79303 13.866 2.75006 11.3867 2.75006H10.6133C8.13831 2.75006 5.70627 2.79303 3.32581 2.90475C1.57268 2.90475 0.150415 4.46881 0.150415 6.4024C0.0429929 7.93209 -0.00427277 9.46178 2.41041e-05 10.9915C-0.00427277 12.5212 0.0429929 14.0508 0.146118 15.5848C0.146118 17.5184 1.56838 19.0868 3.32151 19.0868C5.82229 19.2028 8.38752 19.2544 10.9957 19.2501C13.6082 19.2587 16.1649 19.2071 18.6699 19.0868C20.4274 19.0868 21.8496 17.5184 21.8496 15.5848C21.9528 14.0508 22 12.5212 21.9957 10.9872C22.0043 9.45748 21.9571 7.9278 21.8539 6.39381ZM8.89456 15.2067V6.76334L15.125 10.9829L8.89456 15.2067Z" fill="#031A6E"/>
</g>
<defs>
<clipPath id="clip0_1_158">
<rect width="22" height="22" fill="white"/>
</clipPath>
</defs>
</svg>
